# This file uses centimeters as units for non-parametric coordinates.

v -0.236243 -0.727081 0.045981
v -0.449361 -0.618492 0.045981
v -0.618492 -0.449361 0.045981
v -0.727081 -0.236243 0.045981
v -0.764498 0.000000 0.045981
v -0.727081 0.236242 0.045981
v -0.618492 0.449360 0.045981
v -0.449360 0.618491 0.045981
v -0.236243 0.727081 0.045981
v 0.000000 0.764498 0.045981
v 0.236242 0.727081 0.045981
v 0.449360 0.618491 0.045981
v 0.618491 0.449360 0.045981
v 0.727080 0.236242 0.045981
v 0.764497 0.000000 0.045981
v 0.727080 -0.236243 0.045981
v 0.618491 -0.449361 0.045981
v 0.449360 -0.618492 0.045981
v 0.236242 -0.727080 0.045981
v 0.000000 -0.764497 0.045981
v -0.236243 -0.727081 -0.045998
v -0.449361 -0.618492 -0.045998
v -0.618492 -0.449361 -0.045998
v -0.727081 -0.236243 -0.045998
v -0.764498 0.000000 -0.045998
v -0.727081 0.236242 -0.045998
v -0.618492 0.449360 -0.045998
v -0.449360 0.618491 -0.045998
v -0.236243 0.727081 -0.045998
v 0.000000 0.764498 -0.045998
v 0.236242 0.727081 -0.045998
v 0.449360 0.618491 -0.045998
v 0.618491 0.449360 -0.045998
v 0.727080 0.236242 -0.045998
v 0.764497 0.000000 -0.045998
v 0.727080 -0.236243 -0.045998
v 0.618491 -0.449361 -0.045998
v 0.449360 -0.618492 -0.045998
v 0.236242 -0.727080 -0.045998
v 0.000000 -0.764497 -0.045998
v -0.217946 -0.670769 -0.045998
v -0.414558 -0.570590 -0.045998
v -0.570590 -0.414558 -0.045998
v -0.670769 -0.217946 -0.045998
v -0.705288 0.000000 -0.045998
v -0.670769 0.217946 -0.045998
v -0.570590 0.414558 -0.045998
v -0.414558 0.570589 -0.045998
v -0.217946 0.670768 -0.045998
v 0.000000 0.705288 -0.045998
v 0.217946 0.670768 -0.045998
v 0.414557 0.570589 -0.045998
v 0.570590 0.414558 -0.045998
v 0.670768 0.217946 -0.045998
v 0.705287 0.000000 -0.045998
v 0.670768 -0.217946 -0.045998
v 0.570590 -0.414558 -0.045998
v 0.414557 -0.570589 -0.045998
v 0.217946 -0.670769 -0.045998
v 0.000000 -0.705288 -0.045998
v -0.217946 -0.670769 -0.000392
v -0.414558 -0.570590 -0.000392
v -0.570590 -0.414558 -0.000392
v -0.670769 -0.217946 -0.000392
v -0.705288 0.000000 -0.000392
v -0.670769 0.217946 -0.000392
v -0.570590 0.414558 -0.000392
v -0.414558 0.570589 -0.000392
v -0.217946 0.670768 -0.000392
v 0.000000 0.705288 -0.000392
v 0.217946 0.670768 -0.000392
v 0.414557 0.570589 -0.000392
v 0.570590 0.414558 -0.000392
v 0.670768 0.217946 -0.000392
v 0.705287 0.000000 -0.000392
v 0.670768 -0.217946 -0.000392
v 0.570590 -0.414558 -0.000392
v 0.414557 -0.570589 -0.000392
v 0.217946 -0.670769 -0.000392
v 0.000000 -0.705288 -0.000392
vt 0.481795 0.031180
vt 0.486378 0.031180
vt 0.486378 0.051905
vt 0.481795 0.051905
vt 0.490014 0.051905
vt 0.476715 0.031180
vt 0.476715 0.051905
vt 0.471635 0.031180
vt 0.471635 0.051905
vt 0.467052 0.031180
vt 0.467052 0.051905
vt 0.463415 0.031180
vt 0.514405 0.031180
vt 0.518988 0.031180
vt 0.518988 0.051905
vt 0.514405 0.051905
vt 0.524068 0.031180
vt 0.524068 0.051905
vt 0.510768 0.031180
vt 0.529148 0.031180
vt 0.529148 0.051905
vt 0.533731 0.031180
vt 0.533731 0.051905
vt 0.537368 0.051905
vt 0.491291 0.948735
vt 0.491291 0.954302
vt 0.469823 0.954302
vt 0.469823 0.948735
vt 0.469823 0.958721
vt 0.491291 0.942564
vt 0.469823 0.942564
vt 0.491291 0.936392
vt 0.469823 0.936392
vt 0.491291 0.930825
vt 0.469823 0.930825
vt 0.491291 0.926407
vt 0.513604 0.930825
vt 0.513604 0.936392
vt 0.492137 0.936392
vt 0.492137 0.930825
vt 0.513604 0.942564
vt 0.492137 0.942564
vt 0.513604 0.926407
vt 0.513604 0.948735
vt 0.492137 0.948735
vt 0.513604 0.954302
vt 0.492137 0.954302
vt 0.492137 0.958721
vt 0.032937 0.483300
vt 0.038972 0.480225
vt 0.045661 0.479166
vt 0.028148 0.488089
vt 0.052351 0.480225
vt 0.025073 0.494124
vt 0.058385 0.483300
vt 0.024013 0.500814
vt 0.063174 0.488089
vt 0.025073 0.507503
vt 0.066249 0.494124
vt 0.028148 0.513538
vt 0.067309 0.500814
vt 0.032937 0.518327
vt 0.066249 0.507503
vt 0.038971 0.521402
vt 0.063174 0.513538
vt 0.045661 0.522461
vt 0.058385 0.518327
vt 0.052351 0.521402
vt 0.630868 0.095771
vt 0.749422 0.156178
vt 0.843507 0.250262
vt 0.499450 0.074957
vt 0.903912 0.368816
vt 0.368032 0.095771
vt 0.924727 0.500234
vt 0.249478 0.156178
vt 0.903912 0.631652
vt 0.155394 0.250262
vt 0.843506 0.750206
vt 0.094987 0.368816
vt 0.749422 0.844290
vt 0.074173 0.500234
vt 0.630867 0.904697
vt 0.094987 0.631652
vt 0.499450 0.925511
vt 0.155394 0.750206
vt 0.368032 0.904697
vt 0.249478 0.844290
vt 0.648670 0.044868
vt 0.781751 0.112676
vt 0.760018 0.142588
vt 0.637245 0.080032
vt 0.887364 0.218290
vt 0.857452 0.240022
vt 0.501149 0.021503
vt 0.501149 0.058476
vt 0.955173 0.351371
vt 0.920009 0.362796
vt 0.353627 0.044868
vt 0.365053 0.080032
vt 0.978537 0.498892
vt 0.941564 0.498892
vt 0.220547 0.112676
vt 0.242279 0.142589
vt 0.955173 0.646413
vt 0.920009 0.634988
vt 0.114933 0.218290
vt 0.144845 0.240022
vt 0.887364 0.779494
vt 0.857452 0.757761
vt 0.047125 0.351371
vt 0.082289 0.362796
vt 0.781751 0.885107
vt 0.760018 0.855195
vt 0.023760 0.498892
vt 0.060733 0.498892
vt 0.648670 0.952916
vt 0.637244 0.917751
vt 0.047125 0.646413
vt 0.082289 0.634988
vt 0.501149 0.976281
vt 0.501149 0.939307
vt 0.114933 0.779494
vt 0.144845 0.757761
vt 0.353627 0.952916
vt 0.365053 0.917751
vt 0.220547 0.885107
vt 0.242279 0.855195
vt 0.510018 0.051905
vt 0.505435 0.051905
vt 0.505435 0.031180
vt 0.500355 0.051905
vt 0.500355 0.031180
vt 0.495275 0.051905
vt 0.495275 0.031180
vt 0.490692 0.031180
vt 0.538216 0.031180
vt 0.542799 0.031180
vt 0.542799 0.051905
vt 0.547879 0.031180
vt 0.547879 0.051905
vt 0.552959 0.031180
vt 0.552959 0.051905
vt 0.557542 0.051905
vt 0.535917 0.926407
vt 0.535917 0.931974
vt 0.514450 0.931974
vt 0.535917 0.938145
vt 0.514450 0.938145
vt 0.535917 0.944317
vt 0.514450 0.944317
vt 0.514450 0.949884
vt 0.531534 0.973858
vt 0.531534 0.968291
vt 0.553001 0.968291
vt 0.531534 0.962119
vt 0.553001 0.962119
vt 0.531534 0.955948
vt 0.553001 0.955948
vt 0.553001 0.950381
vn -0.000000 0.000000 1.000000
vn -0.000000 0.000000 1.000000
vn -0.000000 0.000000 1.000000
vn -0.000000 0.000000 1.000000
vn -0.000000 0.000000 1.000000
vn -0.000000 0.000000 1.000000
vn -0.000000 0.000000 1.000000
vn -0.000000 0.000000 1.000000
vn -0.000000 0.000000 1.000000
vn -0.000000 0.000000 1.000000
vn -0.000000 0.000000 1.000000
vn -0.000000 0.000000 1.000000
vn -0.000000 0.000000 1.000000
vn -0.000000 0.000000 1.000000
vn -0.000000 0.000000 1.000000
vn -0.000000 0.000000 1.000000
vn -0.000000 0.000000 1.000000
vn -0.000000 0.000000 1.000000
vn -0.000000 0.000000 1.000000
vn -0.000000 0.000000 1.000000
vn -0.000000 0.000000 1.000000
vn -0.000000 0.000000 1.000000
vn -0.000000 0.000000 1.000000
vn -0.000000 0.000000 1.000000
vn -0.000000 0.000000 1.000000
vn -0.000000 0.000000 1.000000
vn -0.000000 0.000000 1.000000
vn -0.000000 0.000000 1.000000
vn -0.000000 0.000000 1.000000
vn -0.000000 0.000000 1.000000
vn -0.000000 0.000000 1.000000
vn -0.000000 0.000000 1.000000
vn -0.000000 0.000000 1.000000
vn -0.000000 0.000000 1.000000
vn -0.000000 0.000000 1.000000
vn -0.000000 0.000000 1.000000
vn -0.000000 0.000000 1.000000
vn -0.000000 0.000000 1.000000
vn -0.000000 0.000000 1.000000
vn -0.000000 0.000000 1.000000
vn 0.000000 -0.000000 1.000000
vn 0.000000 -0.000000 1.000000
vn 0.000000 -0.000000 1.000000
vn 0.000000 -0.000000 1.000000
vn 0.000000 -0.000000 1.000000
vn 0.000000 -0.000000 1.000000
vn 0.000000 -0.000000 1.000000
vn 0.000000 -0.000000 1.000000
vn 0.000000 -0.000000 1.000000
vn 0.000000 -0.000000 1.000000
vn 0.000000 -0.000000 1.000000
vn 0.000000 -0.000000 1.000000
vn 0.000000 -0.000000 1.000000
vn 0.000000 -0.000000 1.000000
vn 0.000000 -0.000000 1.000000
vn 0.000000 -0.000000 1.000000
vn 0.000000 -0.000000 1.000000
vn 0.000000 -0.000000 1.000000
vn 0.000000 -0.000000 1.000000
vn 0.000000 -0.000000 1.000000
vn 0.000000 0.000000 -1.000000
vn 0.000000 0.000000 -1.000000
vn 0.000000 0.000000 -1.000000
vn 0.000000 0.000000 -1.000000
vn 0.000000 0.000000 -1.000000
vn 0.000000 0.000000 -1.000000
vn 0.000000 0.000000 -1.000000
vn 0.000000 0.000000 -1.000000
vn 0.000000 0.000000 -1.000000
vn 0.000000 0.000000 -1.000000
vn 0.000000 0.000000 -1.000000
vn 0.000000 0.000000 -1.000000
vn 0.000000 0.000000 -1.000000
vn 0.000000 0.000000 -1.000000
vn 0.000000 0.000000 -1.000000
vn 0.000000 0.000000 -1.000000
vn 0.000000 0.000000 -1.000000
vn 0.000000 0.000000 -1.000000
vn 0.000000 0.000000 -1.000000
vn 0.000000 0.000000 -1.000000
vn -0.000000 0.000000 -1.000000
vn -0.000000 0.000000 -1.000000
vn -0.000000 0.000000 -1.000000
vn -0.000000 0.000000 -1.000000
vn -0.000000 0.000000 -1.000000
vn -0.000000 0.000000 -1.000000
vn -0.000000 0.000000 -1.000000
vn -0.000000 0.000000 -1.000000
vn -0.000000 0.000000 -1.000000
vn -0.000000 0.000000 -1.000000
vn -0.000000 0.000000 -1.000000
vn -0.000000 0.000000 -1.000000
vn -0.000000 0.000000 -1.000000
vn -0.000000 0.000000 -1.000000
vn -0.000000 0.000000 -1.000000
vn -0.000000 0.000000 -1.000000
vn -0.000000 0.000000 -1.000000
vn -0.000000 0.000000 -1.000000
vn -0.000000 0.000000 -1.000000
vn -0.000000 0.000000 -1.000000
vn -0.000000 0.000000 -1.000000
vn -0.000000 0.000000 -1.000000
vn -0.000000 0.000000 -1.000000
vn -0.000000 0.000000 -1.000000
vn -0.000000 0.000000 -1.000000
vn -0.000000 0.000000 -1.000000
vn -0.000000 0.000000 -1.000000
vn -0.000000 0.000000 -1.000000
vn -0.000000 0.000000 -1.000000
vn -0.000000 0.000000 -1.000000
vn -0.000000 0.000000 -1.000000
vn -0.000000 0.000000 -1.000000
vn -0.000000 0.000000 -1.000000
vn -0.000000 0.000000 -1.000000
vn -0.000000 0.000000 -1.000000
vn -0.000000 0.000000 -1.000000
vn -0.000000 0.000000 -1.000000
vn -0.000000 0.000000 -1.000000
vn -0.000000 0.000000 -1.000000
vn -0.000000 0.000000 -1.000000
vn -0.000000 0.000000 1.000000
vn -0.000000 0.000000 1.000000
vn -0.000000 0.000000 1.000000
vn -0.000000 0.000000 1.000000
vn -0.000000 0.000000 1.000000
vn -0.000000 0.000000 1.000000
vn -0.000000 0.000000 1.000000
vn -0.000000 0.000000 1.000000
vn -0.000000 0.000000 1.000000
vn -0.000000 0.000000 1.000000
vn -0.000000 0.000000 1.000000
vn -0.000000 0.000000 1.000000
vn -0.000000 0.000000 1.000000
vn -0.000000 0.000000 1.000000
vn -0.000000 0.000000 1.000000
vn -0.000000 0.000000 1.000000
vn -0.000000 0.000000 1.000000
vn -0.000000 0.000000 1.000000
vn -0.000000 0.000000 1.000000
vn -0.000000 0.000000 1.000000
vn -0.000000 0.000000 1.000000
vn -0.000000 0.000000 1.000000
vn -0.000000 0.000000 1.000000
vn -0.000000 0.000000 1.000000
vn -0.000000 0.000000 1.000000
vn -0.000000 0.000000 1.000000
vn -0.000000 0.000000 1.000000
vn -0.000000 0.000000 1.000000
vn -0.000000 0.000000 1.000000
vn -0.000000 0.000000 1.000000
vn -0.000000 0.000000 1.000000
vn -0.000000 0.000000 1.000000
vn -0.000000 0.000000 1.000000
vn -0.000000 0.000000 1.000000
vn -0.000000 0.000000 1.000000
vn -0.000000 0.000000 1.000000
vn -0.000000 0.000000 1.000000
vn -0.000000 0.000000 1.000000
vn -0.000000 0.000000 1.000000
vn -0.000000 0.000000 1.000000
f 21/4/1 40/7/2 39/9/3 38/11/4 37/144/5 36/143/6 35/141/7 34/139/8 33/24/9 32/23/10 31/21/11 30/18/12 29/15/13 28/16/14 27/136/15 26/135/16 25/133/17 24/131/18 23/5/19 22/3/20 10/17/21 11/20/22 12/22/23 13/137/24 14/138/25 15/140/26 16/142/27 17/12/28 18/10/29 19/8/30 20/6/31 1/1/32 2/2/33 3/129/34 4/130/35 5/132/36 6/134/37 7/19/38 8/13/39 9/14/40
f 9/64/41 8/62/42 7/60/43 6/58/44 5/56/45 4/54/46 3/52/47 2/49/48 1/50/49 20/51/50 19/53/51 18/55/52 17/57/53 16/59/54 15/61/55 14/63/56 13/65/57 12/67/58 11/68/59 10/66/60
f 80/72/61 61/69/62 62/70/63 63/71/64 64/73/65 65/75/66 66/77/67 67/79/68 68/81/69 69/83/70 70/85/71 71/87/72 72/88/73 73/86/74 74/84/75 75/82/76 76/80/77 77/78/78 78/76/79 79/74/80
f 40/95/81 21/89/82 22/90/83 23/93/84 24/97/85 25/101/86 26/105/87 27/109/88 28/113/89 29/117/90 30/121/91 31/125/92 32/127/93 33/123/94 34/119/95 35/115/96 36/111/97 37/107/98 38/103/99 39/99/100 59/100/101 58/104/102 57/108/103 56/112/104 55/116/105 54/120/106 53/124/107 52/128/108 51/126/109 50/122/110 49/118/111 48/114/112 47/110/113 46/106/114 45/102/115 44/98/116 43/94/117 42/91/118 41/92/119 60/96/120
f 77/160/121 76/159/122 75/157/123 74/155/124 73/48/125 72/47/126 71/45/127 70/42/128 69/39/129 68/40/130 67/152/131 66/151/132 65/149/133 64/147/134 63/29/135 62/27/136 61/28/137 80/31/138 79/33/139 78/35/140 55/156/141 56/158/142 57/36/143 58/34/144 59/32/145 60/30/146 41/25/147 42/26/148 43/145/149 44/146/150 45/148/151 46/150/152 47/43/153 48/37/154 49/38/155 50/41/156 51/44/157 52/46/158 53/153/159 54/154/160
