# This file uses centimeters as units for non-parametric coordinates.

v -2.590509 -3.653658 0.663171
v 2.590509 -3.653658 0.663171
v -2.590509 3.653658 0.663171
v 2.590509 3.653658 0.663171
v -2.590509 3.653658 -0.663171
v 2.590509 3.653658 -0.663171
v -2.590509 -3.653658 -0.663171
v 2.590509 -3.653658 -0.663171
v -2.590509 -2.034033 -0.663171
v 2.590509 -2.034033 -0.663171
v 2.590509 -2.189906 -0.663171
v -2.590509 -2.189906 -0.663171
v -0.051647 3.653658 -0.663171
v -0.011081 3.653658 -0.663171
v -0.011081 -2.034033 -0.663171
v -0.051647 -2.034033 -0.663171
v -2.491524 3.559298 -0.766623
v -2.491524 -1.939674 -0.766623
v -0.150633 3.559298 -0.766623
v -0.150633 -1.939674 -0.766623
v 2.489116 3.559297 -0.751240
v 2.489116 -1.939673 -0.751240
v 0.090311 -1.939673 -0.751240
v 0.090311 3.559297 -0.751240
v -2.495554 -3.561031 -0.738644
v 2.495553 -3.561031 -0.738644
v -2.495554 -2.282531 -0.738644
v 2.495553 -2.282531 -0.738644
v 0.282937 1.056424 -0.751240
v 0.282937 0.563200 -0.751240
v 0.167839 0.563200 -0.751240
v 0.167839 1.056424 -0.751240
v 0.282937 1.056424 -0.850360
v 0.282937 0.563200 -0.850360
v 0.167839 0.563200 -0.850360
v 0.167839 1.056424 -0.850360
v -0.352826 1.061516 -0.766623
v -0.352826 0.558110 -0.766623
v -0.238268 1.061516 -0.766623
v -0.238268 0.558110 -0.766623
v -0.352826 1.061516 -0.869240
v -0.352826 0.558110 -0.869240
v -0.238268 1.061516 -0.869240
v -0.238268 0.558110 -0.869240
v -0.332680 -2.542091 -0.738644
v 0.332680 -2.542091 -0.738644
v -0.332680 -2.413394 -0.738644
v 0.332680 -2.413394 -0.738644
v -0.332680 -2.542091 -0.857657
v 0.332680 -2.542091 -0.857657
v -0.332680 -2.413394 -0.857657
v 0.332680 -2.413394 -0.857657
vt 0.001891 0.001992
vt 0.473746 0.001992
vt 0.473746 0.473846
vt 0.001891 0.001992
vt 0.473746 0.001992
vt 0.473746 0.473846
vt 0.001891 0.001992
vt 0.473746 0.001992
vt 0.473746 0.001992
vt 0.001891 0.001992
vt 0.149554 0.477636
vt 0.407845 0.477636
vt 0.407845 0.735927
vt 0.149554 0.735927
vt 0.001891 0.739716
vt 0.260183 0.739716
vt 0.260183 0.998008
vt 0.001891 0.998008
vt 0.266647 0.739716
vt 0.266647 0.998008
vt 0.266647 0.796965
vt 0.266647 0.791456
vt 0.377450 0.739716
vt 0.377450 0.940759
vt 0.357304 0.937424
vt 0.357304 0.743052
vt 0.385056 0.940759
vt 0.385056 0.739716
vt 0.405202 0.743052
vt 0.405202 0.937424
vt 0.412808 0.940759
vt 0.412808 0.739717
vt 0.429958 0.743052
vt 0.429958 0.937424
vt 0.454010 0.739716
vt 0.454010 0.940759
vt 0.436860 0.937424
vt 0.436860 0.743052
vt 0.828987 0.540851
vt 0.828987 0.592590
vt 0.814289 0.589316
vt 0.814289 0.544125
vt 0.836491 0.592590
vt 0.836491 0.540851
vt 0.851188 0.544125
vt 0.851188 0.589316
vt 0.957022 0.089723
vt 0.939589 0.089723
vt 0.939589 0.070420
vt 0.957022 0.070420
vt 0.973535 0.098282
vt 0.990969 0.098282
vt 0.990969 0.117584
vt 0.973535 0.117584
vt 0.977939 0.015821
vt 0.995733 0.015821
vt 0.995733 0.035804
vt 0.977939 0.035804
vt 0.966155 0.040223
vt 0.948362 0.040223
vt 0.948362 0.020239
vt 0.966155 0.020239
vt 0.928998 0.540851
vt 0.933547 0.540851
vt 0.933547 0.564028
vt 0.928998 0.564028
vt 0.944648 0.564028
vt 0.940099 0.564028
vt 0.940099 0.540851
vt 0.944648 0.540851
vt 0.425003 0.477636
vt 0.683295 0.477636
vt 0.683295 0.735927
vt 0.425003 0.735927
vt 0.481263 0.016690
vt 0.739555 0.016690
vt 0.739555 0.274981
vt 0.481263 0.274981
vt 0.485997 0.001992
vt 0.734821 0.001992
vt 0.758785 0.667422
vt 0.758785 0.540851
vt 0.778931 0.545786
vt 0.778931 0.662487
vt 0.806683 0.540851
vt 0.806683 0.667422
vt 0.786537 0.662487
vt 0.786537 0.545786
vt 0.727832 0.540851
vt 0.727832 0.670549
vt 0.710681 0.665495
vt 0.710681 0.545906
vt 0.734733 0.670549
vt 0.734733 0.540851
vt 0.751884 0.545906
vt 0.751884 0.665495
vt 0.274047 0.998008
vt 0.274047 0.739716
vt 0.288745 0.744450
vt 0.288745 0.993274
vt 0.954209 0.112009
vt 0.948471 0.112009
vt 0.948471 0.092706
vt 0.954209 0.092706
vt 0.969407 0.083413
vt 0.975145 0.083413
vt 0.975145 0.102716
vt 0.969407 0.102716
vt 0.981273 0.064844
vt 0.986984 0.064844
vt 0.986984 0.084828
vt 0.981273 0.084828
vt 0.948113 0.073677
vt 0.942402 0.073677
vt 0.942402 0.053693
vt 0.948113 0.053693
vt 0.892970 0.540851
vt 0.892970 0.574022
vt 0.869793 0.574022
vt 0.869793 0.540851
vt 0.899396 0.574022
vt 0.899396 0.540851
vt 0.922572 0.540851
vt 0.922572 0.574022
vt 0.689119 0.278771
vt 0.947411 0.278771
vt 0.947411 0.537062
vt 0.689119 0.537062
vt 0.413669 0.735927
vt 0.413669 0.477635
vt 0.419179 0.477635
vt 0.419179 0.735927
vt 0.348053 0.739716
vt 0.350075 0.739716
vt 0.350075 0.940760
vt 0.348053 0.940760
vt 0.863241 0.540851
vt 0.863241 0.574021
vt 0.858692 0.574021
vt 0.858692 0.540851
vt 0.979926 0.048589
vt 0.979926 0.066023
vt 0.974188 0.066023
vt 0.974188 0.048589
vt 0.980174 0.068242
vt 0.980174 0.050448
vt 0.985886 0.050448
vt 0.985886 0.068242
vt 0.792013 0.222479
vt 0.792013 0.997833
vt 0.333995 0.644929
vt 0.333995 0.575383
vt 0.294004 0.997833
vt 0.310099 0.644929
vt 0.294004 0.222479
vt 0.310099 0.575383
vt 0.191449 0.886352
vt 0.191449 0.114649
vt 0.650159 0.465177
vt 0.650159 0.535824
vt 0.693526 0.114649
vt 0.674730 0.465177
vt 0.693526 0.886352
vt 0.674730 0.535824
vt 0.837156 0.007010
vt 0.837156 0.992686
vt 0.692360 0.565548
vt 0.692360 0.434146
vt 0.655476 0.992686
vt 0.674072 0.565548
vt 0.655476 0.007010
vt 0.674072 0.434146
vn 0.000000 0.000000 1.000000
vn 0.000000 0.000000 1.000000
vn 0.000000 0.000000 1.000000
vn 0.000000 0.000000 1.000000
vn 0.000000 1.000000 0.000000
vn 0.000000 1.000000 0.000000
vn 0.000000 1.000000 0.000000
vn 0.000000 1.000000 0.000000
vn 0.000000 0.000000 -1.000000
vn 0.000000 0.000000 -1.000000
vn 0.000000 0.000000 -1.000000
vn 0.000000 0.000000 -1.000000
vn 0.000000 -1.000000 0.000000
vn 0.000000 -1.000000 0.000000
vn 0.000000 -1.000000 0.000000
vn 0.000000 -1.000000 0.000000
vn 1.000000 0.000000 0.000000
vn 1.000000 0.000000 0.000000
vn 1.000000 0.000000 0.000000
vn 1.000000 0.000000 0.000000
vn -1.000000 0.000000 0.000000
vn -1.000000 0.000000 0.000000
vn -1.000000 0.000000 0.000000
vn -1.000000 0.000000 0.000000
vn 0.000000 0.000000 -1.000000
vn 0.000000 0.000000 -1.000000
vn 0.000000 0.000000 -1.000000
vn 0.000000 0.000000 -1.000000
vn 0.000000 0.000000 0.000000
vn 0.000000 0.000000 0.000000
vn 0.000000 0.000000 -1.000000
vn 0.000000 0.000000 -1.000000
vn 0.000000 0.000000 -1.000000
vn 0.000000 0.000000 -1.000000
vn 1.000000 0.000000 0.000000
vn 1.000000 0.000000 0.000000
vn 0.000000 0.000000 0.000000
vn 0.000000 0.000000 0.000000
vn 0.000000 0.000000 0.000000
vn 0.000000 0.000000 0.000000
vn 0.000000 0.000000 -1.000000
vn 0.000000 0.000000 -1.000000
vn 0.000000 0.000000 -1.000000
vn 0.000000 0.000000 -1.000000
vn 0.000000 0.000000 0.000000
vn 0.000000 0.000000 0.000000
vn 0.000000 0.000000 0.000000
vn 0.000000 0.000000 0.000000
vn 0.000000 0.000000 -1.000000
vn 0.000000 0.000000 -1.000000
vn 0.000000 0.000000 -1.000000
vn 0.000000 0.000000 -1.000000
vn -0.722531 0.000000 -0.691338
vn -0.722531 0.000000 -0.691338
vn -0.722531 0.000000 -0.691338
vn -0.722531 0.000000 -0.691338
vn 0.000000 0.738828 -0.673894
vn 0.000000 0.738828 -0.673894
vn 0.000000 0.738828 -0.673894
vn 0.000000 0.738828 -0.673894
vn 0.722530 0.000000 -0.691339
vn 0.722530 0.000000 -0.691339
vn 0.722530 0.000000 -0.691339
vn 0.722530 0.000000 -0.691339
vn 0.000000 -0.738829 -0.673893
vn 0.000000 -0.738829 -0.673893
vn 0.000000 -0.738829 -0.673893
vn 0.000000 -0.738829 -0.673893
vn 0.655760 0.000000 -0.754969
vn 0.655760 0.000000 -0.754969
vn 0.655760 0.000000 -0.754969
vn 0.655760 0.000000 -0.754969
vn 0.000000 -0.682319 -0.731055
vn 0.000000 -0.682319 -0.731055
vn 0.000000 -0.682319 -0.731055
vn 0.000000 -0.682319 -0.731055
vn -0.655765 0.000000 -0.754965
vn -0.655765 0.000000 -0.754965
vn -0.655765 0.000000 -0.754965
vn -0.655765 0.000000 -0.754965
vn 0.000000 0.682317 -0.731057
vn 0.000000 0.682317 -0.731057
vn 0.000000 0.682316 -0.731057
vn 0.000000 0.682317 -0.731057
vn 0.000000 -0.631675 -0.775233
vn 0.000000 -0.631675 -0.775233
vn 0.000000 -0.631675 -0.775233
vn 0.000000 -0.631675 -0.775233
vn -0.622225 0.000000 -0.782839
vn -0.622225 0.000000 -0.782839
vn -0.622225 0.000000 -0.782839
vn -0.622225 0.000000 -0.782839
vn 0.000000 0.631679 -0.775230
vn 0.000000 0.631679 -0.775230
vn 0.000000 0.631679 -0.775230
vn 0.000000 0.631679 -0.775230
vn 0.622223 0.000000 -0.782840
vn 0.622223 0.000000 -0.782840
vn 0.622223 0.000000 -0.782840
vn 0.622223 0.000000 -0.782840
vn 0.000000 0.000000 -1.000000
vn 0.000000 0.000000 -1.000000
vn 0.000000 0.000000 -1.000000
vn 0.000000 0.000000 -1.000000
vn 0.000000 0.000000 -1.000000
vn 0.000000 0.000000 -1.000000
vn 0.000000 0.000000 -1.000000
vn 0.000000 0.000000 -1.000000
vn 1.000000 0.000000 0.000000
vn 1.000000 0.000000 0.000000
vn 1.000000 0.000000 0.000000
vn 1.000000 0.000000 0.000000
vn 0.000000 -1.000000 0.000000
vn 0.000000 -1.000000 0.000000
vn 0.000000 -1.000000 0.000000
vn 0.000000 -1.000000 0.000000
vn -1.000000 0.000000 0.000000
vn -1.000000 0.000000 0.000000
vn -1.000000 0.000000 0.000000
vn -1.000000 0.000000 0.000000
vn 0.000000 1.000000 0.000000
vn 0.000000 1.000000 0.000000
vn 0.000000 1.000000 0.000000
vn 0.000000 1.000000 0.000000
vn 0.000000 0.000000 -1.000000
vn 0.000000 0.000000 -1.000000
vn 0.000000 0.000000 -1.000000
vn 0.000000 0.000000 -1.000000
vn 0.000000 0.000000 -1.000000
vn 0.000000 0.000000 -1.000000
vn 0.000000 0.000000 -1.000000
vn 0.000000 0.000000 -1.000000
vn -1.000000 0.000000 0.000000
vn -1.000000 0.000000 0.000000
vn -1.000000 0.000000 0.000000
vn -1.000000 0.000000 0.000000
vn 0.000000 1.000000 0.000000
vn 0.000000 1.000000 0.000000
vn 0.000000 1.000000 0.000000
vn 0.000000 1.000000 0.000000
vn 1.000000 0.000000 0.000000
vn 1.000000 0.000000 0.000000
vn 1.000000 0.000000 0.000000
vn 1.000000 0.000000 0.000000
vn 0.000000 -1.000000 0.000000
vn 0.000000 -1.000000 0.000000
vn 0.000000 -1.000000 0.000000
vn 0.000000 -1.000000 0.000000
vn 0.000000 0.000000 -1.000000
vn 0.000000 0.000000 -1.000000
vn 0.000000 0.000000 -1.000000
vn 0.000000 0.000000 -1.000000
vn 0.000000 0.000000 -1.000000
vn 0.000000 0.000000 -1.000000
vn 0.000000 0.000000 -1.000000
vn 0.000000 0.000000 -1.000000
vn 0.000000 -1.000000 0.000000
vn 0.000000 -1.000000 0.000000
vn 0.000000 -1.000000 0.000000
vn 0.000000 -1.000000 0.000000
vn -1.000000 0.000000 0.000000
vn -1.000000 0.000000 0.000000
vn -1.000000 0.000000 0.000000
vn -1.000000 0.000000 0.000000
vn 0.000000 1.000000 0.000000
vn 0.000000 1.000000 0.000000
vn 0.000000 1.000000 0.000000
vn 0.000000 1.000000 0.000000
vn 1.000000 0.000000 0.000000
vn 1.000000 0.000000 0.000000
vn 1.000000 0.000000 0.000000
vn 1.000000 0.000000 0.000000
f 1/125/1 2/126/2 4/127/3 3/128/4
f 3/71/5 4/72/6 6/73/7 5/74/8
f 9/129/9 10/130/10 11/131/11 12/132/12
f 7/75/13 8/76/14 2/77/15 1/78/16
f 2/11/17 8/12/18 6/13/19 4/14/20
f 7/15/21 1/16/22 3/17/23 5/18/24
f 13/133/25 14/134/26 15/135/27 16/136/28
f 6/2/19 8/3/18 11/6/29 10/5/30
f 50/137/31 49/138/32 51/139/33 52/140/34
f 7/19/21 5/20/24 9/21/35 12/22/36
f 5/1/37 6/2/38 14/8/39 13/7/40
f 33/141/41 34/142/42 35/143/43 36/144/44
f 10/5/45 9/4/46 16/10/47 15/9/48
f 42/145/49 41/146/50 43/147/51 44/148/52
f 9/23/53 5/24/54 17/25/55 18/26/56
f 5/81/57 13/82/58 19/83/59 17/84/60
f 13/27/61 16/28/62 20/29/63 19/30/64
f 16/85/65 9/86/66 18/87/67 20/88/68
f 6/31/69 10/32/70 22/33/71 21/34/72
f 10/89/73 15/90/74 23/91/75 22/92/76
f 15/35/77 14/36/78 24/37/79 23/38/80
f 14/93/81 6/94/82 21/95/83 24/96/84
f 8/76/85 7/75/86 25/79/87 26/80/88
f 7/39/89 12/40/90 27/41/91 25/42/92
f 12/97/93 11/98/94 28/99/95 27/100/96
f 11/43/97 8/44/98 26/45/99 28/46/100
f 24/155/101 21/149/102 22/150/103 23/153/104 31/154/105 30/151/106 29/152/107 32/156/108
f 29/47/109 30/48/110 34/49/111 33/50/112
f 30/101/113 31/102/114 35/103/115 34/104/116
f 31/51/117 32/52/118 36/53/119 35/54/120
f 32/105/121 29/106/122 33/107/123 36/108/124
f 20/163/125 18/157/126 17/158/127 19/161/128 39/162/129 37/159/130 38/160/131 40/164/132
f 38/55/133 37/56/134 41/57/135 42/58/136
f 37/109/137 39/110/138 43/111/139 41/112/140
f 39/59/141 40/60/142 44/61/143 43/62/144
f 40/113/145 38/114/146 42/115/147 44/116/148
f 28/171/149 26/165/150 25/166/151 27/169/152 47/170/153 45/167/154 46/168/155 48/172/156
f 46/117/157 45/118/158 49/119/159 50/120/160
f 45/63/161 47/64/162 51/65/163 49/66/164
f 47/121/165 48/122/166 52/123/167 51/124/168
f 48/67/169 46/68/170 50/69/171 52/70/172
