# This file uses centimeters as units for non-parametric coordinates.

v -0.200301 0.504230 -0.235244
v -0.407369 0.504230 -0.440118
v -0.412134 0.504230 -0.017359
v -0.414180 0.851276 -0.236623
v -0.200301 0.504230 0.293527
v -0.407369 0.504230 0.088652
v -0.412134 0.504230 0.511412
v -0.414180 0.851276 0.292148
v -0.500000 -0.429453 0.529166
v 0.500000 -0.429453 0.529166
v -0.500000 0.570547 0.529166
v 0.500000 0.570547 0.529166
v -0.500000 0.570547 -0.470834
v 0.500000 0.570547 -0.470834
v -0.500000 -0.429453 -0.470834
v 0.500000 -0.429453 -0.470834
vt 0.307544 0.986532
vt 0.446762 0.652135
vt 0.045901 0.650762
vt 0.245477 0.970010
vt 1.091757 0.900855
vt 0.448179 0.651171
vt 0.046371 0.653813
vt 0.246344 0.969705
vt 0.149552 0.235552
vt 0.149552 0.570638
vt 0.998257 0.458087
vt 0.364129 0.570638
vt 0.507124 0.437441
vt 0.499141 -0.000525
vt 1.168962 0.016227
vt 1.570608 0.809960
vt 2.070608 0.809960
vt 2.579475 0.463568
vt 0.999473 -0.000525
vt 0.395389 0.148566
vn -0.000000 -1.000000 -0.000000
vn -0.000000 -1.000000 -0.000000
vn -0.000000 -1.000000 -0.000000
vn 0.645982 0.395515 -0.652898
vn 0.645982 0.395515 -0.652898
vn 0.645982 0.395515 -0.652898
vn -0.999852 -0.013015 -0.011270
vn -0.999852 -0.013015 -0.011270
vn -0.999852 -0.013015 -0.011270
vn 0.655149 0.406289 0.636953
vn 0.655149 0.406289 0.636953
vn 0.655149 0.406289 0.636953
vn 0.000000 -1.000000 0.000000
vn 0.000000 -1.000000 0.000000
vn 0.000000 -1.000000 0.000000
vn 0.645982 0.395514 -0.652898
vn 0.645982 0.395514 -0.652898
vn 0.645982 0.395514 -0.652898
vn -0.999852 -0.013015 -0.011270
vn -0.999852 -0.013015 -0.011270
vn -0.999852 -0.013015 -0.011270
vn 0.655149 0.406289 0.636952
vn 0.655149 0.406289 0.636953
vn 0.655149 0.406289 0.636952
vn -0.000000 -0.000000 1.000000
vn -0.000000 -0.000000 1.000000
vn -0.000000 -0.000000 1.000000
vn -0.000000 -0.000000 1.000000
vn 0.000000 1.000000 0.000000
vn 0.000000 1.000000 0.000000
vn 0.000000 1.000000 0.000000
vn 0.000000 1.000000 0.000000
vn 0.000000 0.000000 -1.000000
vn 0.000000 0.000000 -1.000000
vn 0.000000 0.000000 -1.000000
vn 0.000000 0.000000 -1.000000
vn -0.000000 -1.000000 0.000000
vn -0.000000 -1.000000 0.000000
vn -0.000000 -1.000000 0.000000
vn -0.000000 -1.000000 0.000000
vn 1.000000 0.000000 0.000000
vn 1.000000 0.000000 0.000000
vn 1.000000 0.000000 0.000000
vn 1.000000 0.000000 0.000000
vn -1.000000 -0.000000 0.000000
vn -1.000000 -0.000000 0.000000
vn -1.000000 -0.000000 0.000000
vn -1.000000 -0.000000 0.000000
f 1/1/1 3/2/2 2/3/3
f 1/1/4 2/3/5 4/4/6
f 2/3/7 3/2/8 4/4/9
f 3/2/10 1/1/11 4/4/12
f 5/5/13 7/6/14 6/7/15
f 5/5/16 6/7/17 8/8/18
f 6/7/19 7/6/20 8/8/21
f 7/6/22 5/5/23 8/8/24
f 9/19/25 10/15/26 12/16/27 11/11/28
f 11/11/29 12/16/30 14/17/31 13/18/32
f 13/13/33 14/12/34 16/20/35 15/14/36
f 15/14/37 16/20/38 10/15/39 9/19/40
f 10/9/41 16/20/42 14/12/43 12/10/44
f 15/14/45 9/19/46 11/11/47 13/13/48
