# This file uses centimeters as units for non-parametric coordinates.

v -0.415436 -5.210861 13.383741
v 0.415415 -5.210861 13.383741
v -0.415436 5.210864 13.383741
v 0.415415 5.210864 13.383741
v -0.415436 5.210864 -13.383741
v 0.415418 5.210864 -13.383741
v -0.415436 -5.210861 -13.383741
v 0.415418 -5.210861 -13.383741
v 0.415418 -5.210861 -12.437850
v 0.415415 -5.210861 12.437850
v 0.415418 5.210864 -12.437850
v 0.415415 5.210864 12.437850
v 26.472557 5.210864 -13.383741
v 26.472557 -5.210861 -13.383741
v 26.472557 5.210864 -12.437853
v 26.472557 -5.210861 -12.437853
v 25.506496 -5.210861 13.383741
v 25.506496 5.210864 13.383741
v 25.506496 -5.210861 12.437850
v 25.506496 5.210864 12.437850
v 0.369203 5.210864 -12.437850
v 0.369203 -5.210861 -12.437850
v 25.542852 -5.210861 -12.437853
v 25.542852 5.210864 -12.437853
v 26.472557 5.210864 13.359937
v 26.472557 -5.210861 13.359937
v 25.542852 5.210864 13.359937
v 25.542852 -5.210861 13.359937
v -0.415436 6.844698 13.383741
v 0.415415 6.844698 13.383741
v 0.415418 6.844698 -13.383741
v -0.415436 6.844698 -13.383741
v 26.490466 5.210864 13.383742
v 26.490469 5.210864 -13.383739
v 26.490469 6.844698 -13.383739
v 26.490466 6.844698 13.383742
vt -0.001994 -0.001290
vt 0.997779 -0.001290
vt 0.997779 0.397113
vt -0.001994 0.397113
vt 0.324196 0.001992
vt 0.354953 0.001992
vt 0.354953 0.032749
vt 0.324196 0.032749
vt 0.354953 0.037571
vt 0.324196 0.037571
vt 0.582640 0.001992
vt 0.582640 0.032749
vt 0.581553 0.032749
vt 0.581553 0.001992
vt 0.551911 0.032749
vt 0.551911 0.001992
vt 0.589564 0.032749
vt 0.589564 0.001992
vt 0.590651 0.001992
vt 0.590651 0.032749
vt 0.010684 0.736076
vt 0.010684 0.374689
vt 1.000597 0.374689
vt 1.000597 0.736076
vt 0.632597 0.032749
vt 0.632597 0.001992
vt 0.811948 0.001992
vt 0.811948 0.032749
vt 0.216499 0.551043
vt 0.216499 0.490698
vt 0.247256 0.490698
vt 0.247256 0.551043
vt 0.217221 0.434932
vt 0.247978 0.434932
vt 0.471224 0.032749
vt 0.471224 0.001992
vt 0.501981 0.001992
vt 0.501981 0.032749
vt 0.544739 0.001992
vt 0.544739 0.032749
vt 0.544739 0.031662
vt 0.544739 0.003079
vt 0.401456 0.546954
vt 0.370699 0.546954
vt 0.371786 0.546954
vt 0.400369 0.546954
vt 0.370699 0.426077
vt 0.371786 0.426077
vt 0.400369 0.421423
vt 0.401456 0.421423
vt 0.409440 0.546954
vt 0.408353 0.546954
vt 0.408353 0.421423
vt 0.409440 0.421423
vt 0.454266 0.542300
vt 0.453179 0.542300
vt 0.453179 0.421423
vt 0.454266 0.421423
vt 0.429146 0.001992
vt 0.429146 0.036408
vt 0.399503 0.036408
vt 0.399503 0.001992
vt 0.435364 0.036408
vt 0.435364 0.001992
vt 0.465007 0.001992
vt 0.465007 0.036408
vt 0.661809 0.460265
vt 0.631052 0.460265
vt 0.631052 0.434354
vt 0.661809 0.434354
vt 0.175080 0.551043
vt 0.175080 0.547041
vt 0.205837 0.547041
vt 0.205837 0.551043
vt 0.175080 0.426163
vt 0.205837 0.426163
vt 0.210659 0.547041
vt 0.210659 0.551043
vt 0.205837 0.421423
vt 0.210659 0.421423
vt 0.258975 0.551043
vt 0.258975 0.547041
vt 0.289731 0.547041
vt 0.289731 0.551043
vt 0.254153 0.551043
vt 0.254153 0.547041
vt 0.258975 0.421509
vt 0.289731 0.421509
vt 0.254153 0.421423
vt 0.258975 0.421423
vt 0.115597 0.198549
vt 0.116825 -0.001843
vt 0.485254 -0.001689
vt 0.484026 0.198703
vt 0.852607 0.066979
vt 0.852671 0.282676
vt 0.302487 0.283294
vt 0.302423 0.067597
vt 0.295392 0.546954
vt 0.326149 0.546954
vt 0.326149 0.547177
vt 0.295392 0.547177
vt 0.326149 0.421423
vt 0.326149 0.425902
vt 0.295392 0.421423
vt 0.295392 0.425902
vt 0.361850 0.001992
vt 0.392607 0.001992
vt 0.392607 0.036408
vt 0.361850 0.036408
vn 0.000000 0.000000 1.000000
vn 0.000000 0.000000 1.000000
vn -0.000000 0.000000 1.000000
vn 0.000000 0.000000 1.000000
vn 0.000000 1.000000 0.000000
vn 0.000000 1.000000 0.000000
vn 0.000000 1.000000 0.000000
vn 0.000000 1.000000 0.000000
vn 0.000000 0.000000 -1.000000
vn 0.000000 0.000000 -1.000000
vn 0.000000 0.000000 -1.000000
vn 0.000000 0.000000 -1.000000
vn 0.000000 -1.000000 0.000000
vn 0.000000 -1.000000 0.000000
vn 0.000000 -1.000000 0.000000
vn 0.000000 -1.000000 0.000000
vn 1.000000 0.000000 0.000000
vn 1.000000 0.000000 0.000000
vn 1.000000 0.000000 0.000000
vn 1.000000 0.000000 0.000000
vn -1.000000 0.000000 0.000000
vn -1.000000 0.000000 0.000000
vn -1.000000 0.000000 0.000000
vn -1.000000 0.000000 0.000000
vn 0.000000 0.000000 0.000000
vn 0.000000 0.000000 0.000000
vn 0.000000 0.000000 0.000000
vn 0.000000 0.000000 0.000000
vn 1.000000 0.000000 0.000000
vn 1.000000 0.000000 0.000000
vn 1.000000 0.000000 0.000000
vn 1.000000 0.000000 0.000000
vn 0.000000 0.000000 0.000000
vn 0.000000 0.000000 0.000000
vn 0.000000 0.000000 0.000000
vn 0.000000 0.000000 0.000000
vn 1.000000 0.000000 0.000000
vn 1.000000 0.000000 0.000000
vn 1.000000 0.000000 0.000000
vn 1.000000 0.000000 0.000000
vn 0.000000 0.000000 -1.000000
vn 0.000000 0.000000 -1.000000
vn 0.000000 0.000000 -1.000000
vn 0.000000 0.000000 -1.000000
vn 0.000000 1.000000 0.000000
vn 0.000000 1.000000 0.000000
vn 0.000000 1.000000 0.000000
vn 0.000000 1.000000 0.000000
vn 0.000000 0.000000 1.000000
vn 0.000000 0.000000 1.000000
vn 0.000000 0.000000 1.000000
vn 0.000000 0.000000 1.000000
vn 0.000000 -1.000000 0.000000
vn 0.000000 -1.000000 0.000000
vn 0.000000 -1.000000 0.000000
vn 0.000000 -1.000000 0.000000
vn 0.000000 0.000000 1.000000
vn 0.000000 0.000000 1.000000
vn 0.000000 -1.000000 0.000000
vn 0.000000 -1.000000 0.000000
vn 0.000000 -1.000000 0.000000
vn 0.000000 -1.000000 0.000000
vn 0.000000 0.000000 -1.000000
vn 0.000000 0.000000 -1.000000
vn 0.000000 0.000000 -1.000000
vn 0.000000 0.000000 -1.000000
vn 0.000000 1.000000 0.000000
vn 0.000000 1.000000 0.000000
vn 0.000000 1.000000 0.000000
vn 0.000000 1.000000 0.000000
vn 0.000000 0.000000 -1.000000
vn 0.000000 0.000000 -1.000000
vn 0.000000 0.000000 -1.000000
vn 0.000000 0.000000 -1.000000
vn 0.000000 0.140024 -0.990148
vn 0.000000 0.000000 -0.000000
vn 0.000000 0.140024 -0.990148
vn 0.000000 0.140024 -0.990148
vn 0.000000 0.000000 1.000000
vn 0.000000 0.000000 1.000000
vn 0.000000 0.000000 1.000000
vn 0.000000 0.000000 1.000000
vn 0.000000 -0.000000 -0.000000
vn 0.000000 -0.112416 -0.993661
vn 0.000000 -0.112416 -0.993661
vn 0.000000 -0.112416 -0.993661
vn 1.000000 0.000000 0.000000
vn 1.000000 0.000000 0.000000
vn 0.000000 1.000000 0.000000
vn 0.000000 1.000000 0.000000
vn 0.000000 1.000000 0.000000
vn 0.000000 1.000000 0.000000
vn -1.000000 0.000000 0.000000
vn -1.000000 0.000000 0.000000
vn -1.000000 0.000000 0.000000
vn -1.000000 0.000000 0.000000
vn 0.000000 -1.000000 0.000000
vn 0.000000 -1.000000 0.000000
vn 0.000000 -1.000000 0.000000
vn 0.000000 -1.000000 0.000000
vn -0.000000 0.000000 1.000000
vn 0.000000 0.000000 1.000000
vn 1.000000 0.000000 0.000000
vn 1.000000 0.000000 0.000000
vn 1.000000 0.000000 0.000000
vn 1.000000 0.000000 0.000000
vn 0.000000 0.000000 -1.000000
vn 0.000000 0.000000 -1.000000
vn -1.000000 0.000000 0.000000
vn -1.000000 0.000000 0.000000
vn 0.000000 -1.000000 0.000000
vn 0.000000 -1.000000 0.000000
vn 0.000000 -1.000000 0.000000
vn 0.000000 -1.000000 0.000000
vn 0.000000 0.000000 -1.000000
vn 0.000000 0.000000 -1.000000
vn 0.000000 1.000000 0.000000
vn 0.000000 1.000000 0.000000
vn -0.000000 0.000000 1.000000
vn -0.000000 0.000000 1.000000
f 1/71/1 2/72/2 4/73/3 3/74/4
f 29/29/5 30/30/6 31/31/7 32/32/8
f 5/81/9 6/82/10 8/83/11 7/84/12
f 7/35/13 8/36/14 2/37/15 1/38/16
f 10/1/17 9/2/18 11/3/19 12/4/20
f 7/5/21 1/6/22 3/7/23 5/8/24
f 2/39/25 8/40/26 9/41/27 10/42/28
f 14/11/29 13/12/30 15/13/31 16/14/32
f 6/43/33 4/44/34 12/45/35 11/46/36
f 18/17/37 17/18/38 19/19/39 20/20/40
f 8/83/41 6/82/42 13/87/43 14/88/44
f 6/43/45 11/46/46 15/49/47 13/50/48
f 21/91/49 22/92/50 23/93/51 24/94/52
f 9/51/53 8/52/54 14/53/55 16/54/56
f 4/73/3 2/72/2 17/75/57 18/76/58
f 2/55/59 10/56/60 19/57/61 17/58/62
f 10/95/63 12/96/64 20/97/65 19/98/66
f 12/45/67 4/44/68 18/47/69 20/48/70
f 11/99/71 9/100/72 22/101/73 21/102/74
f 9/100/75 16/103/76 23/104/77 22/101/78
f 26/107/79 25/108/80 27/109/81 28/110/82
f 15/105/83 11/99/84 21/102/85 24/106/86
f 16/14/32 15/13/31 25/15/87 26/16/88
f 15/59/89 24/60/90 27/61/91 25/62/92
f 24/21/93 23/22/94 28/23/95 27/24/96
f 23/63/97 16/64/98 26/65/99 28/66/100
f 3/74/4 4/73/3 30/77/101 29/78/102
f 33/25/103 34/26/104 35/27/105 36/28/106
f 6/82/10 5/81/9 32/85/107 31/86/108
f 5/8/24 3/7/23 29/9/109 32/10/110
f 4/67/111 6/68/112 34/69/113 33/70/114
f 6/82/10 31/86/108 35/89/115 34/90/116
f 31/31/7 30/30/6 36/33/117 35/34/118
f 30/77/101 4/73/3 33/79/119 36/80/120
