# This file uses centimeters as units for non-parametric coordinates.

v -0.130193 -4.291031 12.570458
v 0.130193 -4.291031 12.570458
v -0.130193 4.291032 12.570458
v 0.130193 4.291032 12.570458
v -0.130193 4.291032 -12.570458
v 0.130193 4.291032 -12.570458
v -0.130193 -4.291031 -12.570458
v 0.130193 -4.291031 -12.570458
v 0.130193 -4.291031 12.029354
v 0.130193 -4.291031 12.344147
v 0.130193 4.291032 12.029354
v 0.130193 4.291032 12.344147
v 25.074848 -4.291031 12.570458
v 25.074848 4.291032 12.570458
v 25.074848 -4.291031 12.344147
v 25.074848 4.291032 12.344147
vt 0.048243 0.066829
vt 0.048243 0.001992
vt 0.048243 0.001992
vt 0.048243 0.066829
vt 0.105197 0.001992
vt 0.115486 0.001992
vt 0.115486 0.012282
vt 0.105197 0.012282
vt 0.129210 0.001992
vt 0.139278 0.001992
vt 0.139278 0.012282
vt 0.129210 0.012282
vt 0.129081 0.012282
vt 0.129081 0.001992
vt 0.145616 0.012282
vt 0.145616 0.001992
vt 0.145709 0.001992
vt 0.145709 0.012282
vt 0.055592 0.012282
vt 0.055592 0.001992
vt 0.065881 0.001992
vt 0.065881 0.012282
vt 0.088662 0.001992
vt 0.098951 0.001992
vt 0.098951 0.012282
vt 0.088662 0.012282
vt 0.121732 0.001992
vt 0.121732 0.012282
vt 0.121732 0.002213
vt 0.121732 0.002085
vt 0.017102 0.987719
vt 0.017010 0.987719
vt 0.017010 0.001992
vt 0.017102 0.001992
vt 0.040986 0.987719
vt 0.040894 0.987719
vt 0.040894 0.001992
vt 0.040986 0.001992
vt 0.010580 0.987719
vt 0.010580 0.998008
vt 0.000291 0.998008
vt 0.000291 0.987719
vt 0.000291 0.001992
vt 0.010580 0.001992
vt 0.072127 0.001992
vt 0.082416 0.001992
vt 0.082416 0.012282
vt 0.072127 0.012282
vt 0.034648 0.987719
vt 0.024359 0.987719
vt 0.024359 0.001992
vt 0.034648 0.001992
vn 0.000000 0.000000 1.000000
vn 0.000000 0.000000 1.000000
vn 0.000000 0.000000 1.000000
vn 0.000000 0.000000 1.000000
vn 0.000000 0.000000 1.000000
vn 0.000000 0.000000 1.000000
vn 0.000000 1.000000 0.000000
vn 0.000000 1.000000 0.000000
vn 0.000000 1.000000 0.000000
vn 0.000000 1.000000 0.000000
vn 0.000000 0.000000 -1.000000
vn 0.000000 0.000000 -1.000000
vn 0.000000 0.000000 -1.000000
vn 0.000000 0.000000 -1.000000
vn 0.000000 -1.000000 0.000000
vn 0.000000 -1.000000 0.000000
vn 0.000000 -1.000000 0.000000
vn 0.000000 -1.000000 0.000000
vn -1.000000 0.000000 0.000000
vn -1.000000 0.000000 0.000000
vn -1.000000 0.000000 0.000000
vn -1.000000 0.000000 0.000000
vn 0.000000 -1.000000 0.000000
vn 0.000000 0.000000 0.000000
vn 0.000000 0.000000 0.000000
vn 0.000000 -1.000000 0.000000
vn 1.000000 0.000000 0.000000
vn 1.000000 0.000000 0.000000
vn 1.000000 0.000000 0.000000
vn 1.000000 0.000000 0.000000
vn 1.000000 0.000000 0.000000
vn 1.000000 0.000000 0.000000
vn 0.000000 0.000000 0.000000
vn 0.000000 1.000000 0.000000
vn 0.000000 1.000000 0.000000
vn 0.000000 0.000000 0.000000
vn 1.000000 0.000000 0.000000
vn 1.000000 0.000000 0.000000
vn 1.000000 0.000000 0.000000
vn 1.000000 0.000000 0.000000
vn 0.000000 -1.000000 0.000000
vn 0.000000 -1.000000 0.000000
vn 0.000000 0.000000 -1.000000
vn 0.000000 0.000000 -1.000000
vn 0.000000 0.000000 -1.000000
vn 0.000000 0.000000 -1.000000
vn 0.000000 1.000000 0.000000
vn 0.000000 1.000000 0.000000
f 4/39/1 3/40/2 1/41/3 2/42/4 13/43/5 14/44/6
f 3/19/7 4/20/8 6/21/9 5/22/10
f 5/45/11 6/46/12 8/47/13 7/48/14
f 7/23/15 8/24/16 2/25/17 1/26/18
f 7/5/19 1/6/20 3/7/21 5/8/22
f 2/27/23 8/28/24 9/29/25 10/30/26
f 9/9/27 8/10/28 6/11/29 11/12/30 12/13/31 10/14/32
f 6/2/33 4/1/34 12/4/35 11/3/36
f 14/15/37 13/16/38 15/17/39 16/18/40
f 2/31/23 10/32/26 15/33/41 13/34/42
f 10/49/43 12/50/44 16/51/45 15/52/46
f 12/35/35 4/36/34 14/37/47 16/38/48
